<svg width="482" height="88" viewBox="0 0 482 88" fill="none" xmlns="http://www.w3.org/2000/svg">
<rect opacity="0.06" y="1" width="474" height="72" rx="14" fill="#217BF4"/>
<path opacity="0.8" d="M68.8192 31.3636H67.0806V39.9091H66.9726L61.0522 31.3636H59.4272V43H61.1828V34.4659H61.2908L67.2056 43H68.8192V31.3636ZM75.1653 43.1761C77.0687 43.1761 78.4153 42.2386 78.8016 40.8182L77.1937 40.5284C76.8869 41.3523 76.1482 41.7727 75.1823 41.7727C73.7278 41.7727 72.7505 40.8295 72.7051 39.1477H78.9096V38.5455C78.9096 35.392 77.0232 34.1591 75.046 34.1591C72.6141 34.1591 71.0119 36.0114 71.0119 38.6932C71.0119 41.4034 72.5914 43.1761 75.1653 43.1761ZM72.7107 37.875C72.7789 36.6364 73.6766 35.5625 75.0573 35.5625C76.3755 35.5625 77.2391 36.5398 77.2448 37.875H72.7107ZM82.831 43H84.5582L86.331 36.6989H86.4616L88.2344 43H89.9673L92.5298 34.2727H90.7741L89.0753 40.6534H88.9901L87.2855 34.2727H85.5298L83.8139 40.6818H83.7287L82.0185 34.2727H80.2628L82.831 43ZM100.842 36.4034C100.49 35.0455 99.427 34.1591 97.5407 34.1591C95.5691 34.1591 94.1714 35.1989 94.1714 36.7443C94.1714 37.983 94.9214 38.8068 96.5577 39.1705L98.035 39.4943C98.8759 39.6818 99.268 40.0568 99.268 40.6023C99.268 41.2784 98.5464 41.8068 97.4327 41.8068C96.4157 41.8068 95.7623 41.3693 95.5577 40.5114L93.9157 40.7614C94.1998 42.3068 95.4839 43.1761 97.4441 43.1761C99.552 43.1761 101.012 42.0568 101.012 40.4773C101.012 39.2443 100.228 38.483 98.6259 38.1136L97.2395 37.7955C96.2793 37.5682 95.8645 37.2443 95.8702 36.6534C95.8645 35.983 96.5918 35.5057 97.5577 35.5057C98.6145 35.5057 99.1032 36.0909 99.302 36.6761L100.842 36.4034ZM107.114 34.2727H105.324V32.1818H103.625V34.2727H102.347V35.6364H103.625V40.7898C103.62 42.375 104.83 43.142 106.171 43.1136C106.711 43.108 107.074 43.0057 107.273 42.9318L106.966 41.5284C106.853 41.5511 106.642 41.6023 106.37 41.6023C105.819 41.6023 105.324 41.4205 105.324 40.4375V35.6364H107.114V34.2727Z" fill="#2F2C4A"/>
<path opacity="0.8" d="M207.603 43H209.359V38.9091H211.745C214.444 38.9091 215.779 37.2784 215.779 35.1307C215.779 32.9886 214.455 31.3636 211.751 31.3636H207.603V43ZM209.359 37.4205V32.8693H211.563C213.302 32.8693 214.012 33.8125 214.012 35.1307C214.012 36.4489 213.302 37.4205 211.586 37.4205H209.359ZM221.428 43.1761C223.888 43.1761 225.496 41.375 225.496 38.6761C225.496 35.9602 223.888 34.1591 221.428 34.1591C218.968 34.1591 217.36 35.9602 217.36 38.6761C217.36 41.375 218.968 43.1761 221.428 43.1761ZM221.434 41.75C219.826 41.75 219.076 40.3466 219.076 38.6705C219.076 37 219.826 35.5795 221.434 35.5795C223.03 35.5795 223.78 37 223.78 38.6705C223.78 40.3466 223.03 41.75 221.434 41.75ZM227.552 46.2727H229.251V41.642H229.353C229.66 42.1989 230.285 43.1705 231.876 43.1705C233.99 43.1705 235.524 41.4773 235.524 38.6534C235.524 35.8239 233.967 34.1591 231.859 34.1591C230.24 34.1591 229.655 35.1477 229.353 35.6875H229.211V34.2727H227.552V46.2727ZM229.217 38.6364C229.217 36.8125 230.013 35.6023 231.496 35.6023C233.035 35.6023 233.808 36.9034 233.808 38.6364C233.808 40.3864 233.013 41.7216 231.496 41.7216C230.035 41.7216 229.217 40.4716 229.217 38.6364ZM243.116 39.3807C243.121 40.8636 242.019 41.5682 241.065 41.5682C240.013 41.5682 239.286 40.8068 239.286 39.6193V34.2727H237.587V39.8239C237.587 41.9886 238.775 43.1136 240.451 43.1136C241.763 43.1136 242.656 42.4205 243.059 41.4886H243.15V43H244.82V34.2727H243.116V39.3807ZM248.962 31.3636H247.263V43H248.962V31.3636ZM253.947 43.1932C255.39 43.1932 256.203 42.4602 256.527 41.8068H256.595V43H258.254V37.2045C258.254 34.6648 256.254 34.1591 254.868 34.1591C253.288 34.1591 251.833 34.7955 251.265 36.3864L252.862 36.75C253.112 36.1307 253.748 35.5341 254.89 35.5341C255.987 35.5341 256.549 36.108 256.549 37.0966V37.1364C256.549 37.7557 255.913 37.7443 254.345 37.9261C252.691 38.1193 250.998 38.5511 250.998 40.5341C250.998 42.25 252.288 43.1932 253.947 43.1932ZM254.316 41.8295C253.356 41.8295 252.663 41.3977 252.663 40.5568C252.663 39.6477 253.47 39.3239 254.453 39.1932C255.004 39.1193 256.311 38.9716 256.555 38.7273V39.8523C256.555 40.8864 255.731 41.8295 254.316 41.8295ZM260.677 43H262.376V37.6705C262.376 36.5284 263.256 35.7045 264.461 35.7045C264.813 35.7045 265.211 35.767 265.347 35.8068V34.1818C265.177 34.1591 264.842 34.142 264.626 34.142C263.603 34.142 262.728 34.7216 262.41 35.6591H262.319V34.2727H260.677V43Z" fill="#2F2C4A"/>
<g filter="url(#filter0_d_5_1234)">
<rect x="316" y="9" width="150" height="56" rx="14" fill="#217BF4"/>
</g>
<path d="M369.14 43L370.101 40.1307H374.476L375.442 43H377.692L373.589 31.3636H370.987L366.89 43H369.14ZM370.669 38.4375L372.243 33.75H372.334L373.908 38.4375H370.669ZM382.835 43.1705C385.028 43.1705 386.425 41.8693 386.573 40.017H384.607C384.431 40.9545 383.755 41.4943 382.852 41.4943C381.568 41.4943 380.738 40.4205 380.738 38.6364C380.738 36.875 381.585 35.8182 382.852 35.8182C383.84 35.8182 384.448 36.4545 384.607 37.2955H386.573C386.431 35.4034 384.954 34.1591 382.823 34.1591C380.266 34.1591 378.653 36.0057 378.653 38.6705C378.653 41.3125 380.227 43.1705 382.835 43.1705ZM392.78 34.2727H391.058V32.1818H389.002V34.2727H387.763V35.8636H389.002V40.7159C388.99 42.358 390.183 43.1648 391.729 43.1193C392.314 43.1023 392.718 42.9886 392.939 42.9148L392.593 41.3068C392.479 41.3352 392.246 41.3864 391.99 41.3864C391.473 41.3864 391.058 41.2045 391.058 40.375V35.8636H392.78V34.2727ZM394.66 43H396.717V34.2727H394.66V43ZM395.694 33.0341C396.348 33.0341 396.882 32.5341 396.882 31.9205C396.882 31.3011 396.348 30.8011 395.694 30.8011C395.035 30.8011 394.501 31.3011 394.501 31.9205C394.501 32.5341 395.035 33.0341 395.694 33.0341ZM406.788 34.2727H404.6L402.589 40.7557H402.498L400.492 34.2727H398.299L401.407 43H403.68L406.788 34.2727ZM411.938 43.1705C413.972 43.1705 415.369 42.1761 415.733 40.6591L413.813 40.4432C413.534 41.1818 412.852 41.5682 411.966 41.5682C410.637 41.5682 409.756 40.6932 409.739 39.1989H415.818V38.5682C415.818 35.5057 413.977 34.1591 411.83 34.1591C409.33 34.1591 407.699 35.9943 407.699 38.6875C407.699 41.4261 409.307 43.1705 411.938 43.1705ZM409.744 37.8125C409.807 36.6989 410.631 35.7614 411.858 35.7614C413.04 35.7614 413.835 36.625 413.847 37.8125H409.744Z" fill="white"/>
<defs>
<filter id="filter0_d_5_1234" x="300" y="0" width="182" height="88" filterUnits="userSpaceOnUse" color-interpolation-filters="sRGB">
<feFlood flood-opacity="0" result="BackgroundImageFix"/>
<feColorMatrix in="SourceAlpha" type="matrix" values="0 0 0 0 0 0 0 0 0 0 0 0 0 0 0 0 0 0 127 0" result="hardAlpha"/>
<feMorphology radius="6" operator="erode" in="SourceAlpha" result="effect1_dropShadow_5_1234"/>
<feOffset dy="7"/>
<feGaussianBlur stdDeviation="11"/>
<feColorMatrix type="matrix" values="0 0 0 0 0.00137216 0 0 0 0 0.281722 0 0 0 0 0.658637 0 0 0 0.34 0"/>
<feBlend mode="normal" in2="BackgroundImageFix" result="effect1_dropShadow_5_1234"/>
<feBlend mode="normal" in="SourceGraphic" in2="effect1_dropShadow_5_1234" result="shape"/>
</filter>
</defs>
</svg>
