<svg width="264" height="262" viewBox="0 0 264 262" fill="none" xmlns="http://www.w3.org/2000/svg">
<path d="M159.097 75.5015C133.151 96.1984 135.796 140.2 134.229 164.151C133.128 180.906 129.68 204.917 127.49 218.659L176.103 225.817V141.576C176.103 113.496 178.057 78.9856 185.717 71.5523C180.382 70.9613 175.67 71.1128 172.441 71.5523C169.88 71.5318 166.673 71.9636 163.163 73.3843C161.619 74.3 160.484 74.7101 159.097 75.5015Z" fill="white"/>
<path opacity="0.5" d="M159.097 75.501C133.151 96.1979 135.796 140.199 134.229 164.15C133.128 180.905 129.68 204.917 127.49 218.658C145.977 225.461 154.079 227.082 176.103 225.816V141.576C176.103 119.869 177.271 94.3188 181.342 80.4058C176.962 87.4272 170.891 121.316 171.817 141.576C172.744 161.836 172.126 201.304 166.258 212.295C160.383 223.286 130.107 215.042 132.887 206.494C135.667 197.945 135.667 170.163 138.138 138.107C140.115 112.462 152.936 85.684 159.097 75.501Z" fill="#FFB83B"/>
<path d="M166.26 212.295C160.385 223.286 130.109 215.043 132.889 206.494C139.993 217.485 156.987 214.127 159.767 209.853C162.547 205.579 166.877 194.893 166.877 176.88C166.877 162.47 170.584 134.851 172.437 122.843C171.831 129.552 171.567 136.068 171.819 141.576C172.746 161.836 172.128 201.304 166.26 212.295Z" fill="#FFF9EF"/>
<path d="M138.137 138.108C139.687 118.07 147.847 97.3393 154.283 84.3748C150.65 92.2109 143.456 112.463 143.703 130.78C143.95 149.098 138.424 171.996 135.627 181.155C136.284 169.127 136.902 154.153 138.137 138.108Z" fill="#FFF9EF"/>
<path d="M122.689 251.984L111.873 250.458C113.524 239.158 124.975 183.962 129.721 147.633C130.754 139.707 131.827 131.415 132.916 122.856C137.123 89.7064 151.685 79.9329 163.159 73.3843C137.213 94.0812 135.792 140.2 134.225 164.151C133.124 180.906 129.676 204.917 127.486 218.659C127.171 220.631 122.942 250.487 122.689 251.984Z" fill="#FFAF2E"/>
<path d="M129.721 147.632C130.754 139.707 131.827 131.415 132.916 122.856C132.596 133.232 131.827 150.281 129.721 167.721C125.761 200.525 121.454 230.307 111.873 250.457C113.524 239.157 124.975 183.962 129.721 147.632Z" fill="#F3A00D"/>
<path d="M226.502 251.068C221.251 228.171 213.523 138.108 213.523 138.108C213.523 138.108 219.752 106.326 209.508 90.7863C202.96 80.8463 185.718 71.5522 185.718 71.5522C178.058 78.9855 176.103 113.496 176.103 141.576V225.816V255.037C189.425 257.784 211.67 259.006 226.502 251.068Z" fill="#FFAF2E"/>
<path d="M179.995 85.9014C177.007 100.407 176.103 122.479 176.103 141.576V213.516C177.401 202.933 179.72 175.17 178.614 148.793C177.507 122.415 179.074 95.8741 179.995 85.9014Z" fill="#F9A319"/>
<path d="M226.502 251.068C221.251 228.171 213.523 138.108 213.523 138.108C213.523 138.108 219.752 106.326 209.508 90.7861C209.508 107.272 201.477 129.559 206.11 151.846C212.344 181.817 217.539 209.242 211.67 230.002C206.975 246.611 185.999 253.612 176.103 255.037C189.425 257.784 211.67 259.006 226.502 251.068Z" fill="#F9A319"/>
<path d="M260.793 161.31C262.646 142.382 244.113 114.6 223.103 93.8394C213.758 84.6059 194.68 73.6897 185.716 71.5525L213.522 138.108C213.522 138.108 222.159 147.633 233.15 164.151C236.553 156.718 250.908 151.846 260.793 161.31Z" fill="#FFAF2E"/>
<path d="M260.794 161.31C262.647 142.381 244.108 114.599 223.104 93.839C218.224 89.0185 210.692 83.7391 203.33 79.4897C205.7 83.5604 210.805 92.8622 212.287 97.5023C214.141 103.303 253.998 126.49 250.6 156.265C254.122 156.768 257.677 158.327 260.794 161.31Z" fill="#F9A319"/>
<path d="M229.844 156.262C230.428 150.498 235.92 147.136 239.812 146.175C248.562 144.014 257.307 146.656 261.681 153.14C265.5 158.795 261.199 167.07 257.307 170.192C258.037 159.384 253.909 155.542 244.912 156.983C235.92 158.424 233.247 163.948 232.764 168.751C230.574 167.07 229.114 163.467 229.844 156.262Z" fill="#F9A319"/>
<path d="M244.911 156.983C235.919 158.424 233.246 163.948 232.757 168.751C233.572 178.758 235.043 202.279 234.459 216.305C233.734 233.837 232.757 239.841 229.601 247.526C226.439 255.212 230.618 263.195 236.694 261.754C242.771 260.312 247.73 253.29 246.275 247.526C244.815 241.762 246.275 235.998 248.701 231.915C251.133 227.832 257.305 192.768 257.305 170.192C258.035 159.384 253.902 155.542 244.911 156.983Z" fill="#FFD0B7"/>
<path d="M132.919 122.856C137.126 89.7064 151.688 79.9329 163.162 73.3843C153.57 78.4911 131.942 84.3748 116.166 112.12C102.766 135.685 92.5842 141.891 88.4001 142.992C93.4547 147.672 102.21 161.745 101.373 170.774C106.815 166.81 122.411 153.506 129.723 147.633C130.757 139.707 131.83 131.415 132.919 122.856Z" fill="#FFAF2E"/>
<path d="M129.722 147.632C130.755 139.707 131.828 131.415 132.917 122.856C129.935 137.829 118.675 146.656 112.497 148.793C107.549 150.502 102.573 159.886 100.709 164.363C101.287 166.638 101.551 168.824 101.371 170.775C106.813 166.81 122.409 153.506 129.722 147.632Z" fill="#F9A319"/>
<path d="M96.6294 157.666C93.1698 146.978 88.0929 143.654 85.9251 143.298C86.6496 142.585 88.5703 140.939 90.9515 140.298C93.9224 139.496 102.307 140.298 106.093 146.444C109.299 151.648 112.854 160.071 106.093 168.355C100.684 174.981 89.0589 174.322 83.9202 173.164C89.5981 172.452 99.7463 167.286 96.6294 157.666Z" fill="#F9A319"/>
<path d="M83.9187 173.164C89.5966 172.452 99.7449 167.286 96.6279 157.666C94.14 149.98 90.8714 144.519 85.9236 143.297C84.7555 143.728 82.4585 144.68 73.3716 140.832C62.0158 136.023 24.9697 119.188 22.2655 116.784C19.5614 114.379 13.6128 106.096 5.23016 106.363C-3.15245 106.63 -0.178162 121.86 9.82695 124.533C19.8321 127.205 28.2147 134.419 33.0816 139.764C37.9491 145.107 64.1781 171.027 83.9187 173.164Z" fill="#FFD0B7"/>
<path d="M162.902 73.3958V56.8217L185.715 45.9072V71.5522C175.544 90.2868 161.976 85.5185 162.902 73.3958Z" fill="#FFD0B7"/>
<path d="M165.425 55.6158L185.716 45.9072V71.5522C185.699 71.5894 185.677 71.626 185.66 71.6632C184.638 73.529 183.588 75.1595 182.515 76.5713C178.741 70.9556 168.761 62.2415 162.903 57.8895V57.0288L165.425 55.6158Z" fill="url(#paint0_linear_5_1393)"/>
<path d="M151.58 15.0428C151.58 24.7703 156.516 25.9534 160.15 25.4401L182.367 49.3153C182.626 49.8286 185.114 51.9453 185.114 56.94C185.114 62.0052 189.146 51.493 192.134 49.3153C198.323 44.8073 202.529 44.6736 204.489 37.2387C206.174 30.8566 203.798 26.3386 201.85 25.4401C200.682 24.9268 199.435 23.8229 197.565 23.5149C195.694 23.2064 195.223 20.0492 195.223 18.5086C195.093 17.3537 194.588 15.7471 191.606 13.8874C189.753 12.7325 184.962 12.2186 183.142 13.8874C181.974 14.5295 179.323 15.1971 178.077 12.7325C176.83 10.2679 174.179 11.1919 173.011 11.9616C169.585 13.1937 161.638 9.57474 158.549 0.110352C154.843 4.99516 151.58 8.35326 151.58 15.0428Z" fill="#2B2B39"/>
<path d="M201.851 25.4404C200.683 24.9265 199.436 23.8227 197.566 23.5146C207.203 30.6016 199.436 41.9562 193.258 45.0085C188.316 47.4503 185.772 53.9801 185.115 56.9403C185.115 62.0049 189.147 51.4927 192.135 49.315C198.324 44.807 202.53 44.6733 204.49 37.239C206.175 30.8569 203.8 26.3383 201.851 25.4404Z" fill="#13131C"/>
<path d="M173.013 11.9617C169.587 13.1937 161.641 9.57419 158.552 0.110352C158.608 5.80319 161.416 16.7599 172.199 15.0428C173.884 14.4851 175.849 13.3751 178.096 15.595C180.342 17.8149 186.026 12.7319 191.608 13.8874C189.755 12.7319 184.964 12.218 183.145 13.8874C181.977 14.5289 179.326 15.1965 178.079 12.7319C176.832 10.2673 174.187 11.1914 173.013 11.9617Z" fill="#13131C"/>
<path d="M171.458 57.7871C180.5 55.0145 184.055 48.6734 184.707 45.8498C184.971 44.6943 185.616 41.4855 185.487 40.0737C184.549 37.3011 181.719 41.2286 180.421 43.5394C178.686 46.6201 178.372 35.8376 180.421 33.1422C183.224 29.445 178.86 28.466 176.911 27.3661C176.002 26.8522 173.486 25.9798 170.678 26.5958C167.869 27.2118 166.392 25.5685 165.999 24.67C164.96 23.0018 162.259 20.6654 159.765 24.67C153.84 33.6044 154.958 45.3364 156.261 50.0858C157.558 53.808 162.416 60.5597 171.458 57.7871Z" fill="#FFD0B7"/>
<defs>
<linearGradient id="paint0_linear_5_1393" x1="166.728" y1="47.3508" x2="170.601" y2="71.2354" gradientUnits="userSpaceOnUse">
<stop stop-color="#F4AF8A"/>
<stop offset="1" stop-color="#F9C0A1" stop-opacity="0"/>
</linearGradient>
</defs>
</svg>
