<svg width="184" height="234" viewBox="0 0 184 234" fill="none" xmlns="http://www.w3.org/2000/svg">
<path d="M176.623 133.067C170.649 134.878 163.24 137.437 157.742 136.102C153.335 135.031 153.666 133.639 153.168 130.719C154.565 128.35 160.469 123.795 171.899 121.472C186.185 118.567 187.128 129.881 176.623 133.067Z" fill="#FEBE9D"/>
<path d="M111.666 90.3861C109.906 86.1124 105.068 85.4003 102.869 85.5782C86.8447 91.9887 96.5848 138.198 100.355 144.342C104.125 150.485 108.524 152.889 112.923 154.759C117.321 156.629 126.119 155.56 128.318 154.225C130.518 152.889 131.146 151.553 133.659 151.286C136.173 151.019 140.258 150.218 141.828 148.615C143.399 147.013 144.656 145.41 148.427 145.41C152.197 145.41 155.339 142.739 156.595 141.137C157.852 139.534 158.795 139.267 160.994 138.732C163.194 138.198 165.393 138.198 166.021 135.527C166.65 132.856 166.964 127.514 166.65 124.843C166.335 122.172 166.335 122.172 164.764 122.439C163.194 122.706 159.109 124.843 157.852 124.843C156.595 124.843 154.396 124.576 152.197 125.377C149.997 126.179 142.771 129.117 138.058 130.452C133.345 131.788 126.433 132.055 127.061 130.185C127.69 128.316 129.889 122.974 125.49 122.974C121.092 122.974 121.092 120.035 119.207 113.892C117.321 107.748 113.865 95.7283 111.666 90.3861Z" fill="#217BF4"/>
<path d="M158.168 136.597C159.529 136.508 162.629 135.956 164.137 134.46M159.424 127.783C160.367 126.981 162.818 125.378 165.08 125.378L159.424 127.783ZM161.624 129.118L164.137 128.05L161.624 129.118ZM158.482 132.858C159.948 132.679 163.257 132.003 164.766 130.721L158.482 132.858Z" stroke="#2068D9" stroke-width="1.07894"/>
<path d="M159.02 139.286C158.446 137.156 157.874 133.831 158.481 131.254C157.852 133.123 156.03 137.504 153.768 140.068C150.94 143.274 147.484 143.006 146.856 140.335C146.227 137.664 142.457 139.267 141.2 142.472C139.944 145.677 137.116 149.684 132.403 149.951C127.988 150.201 125.779 151.154 124.484 151.713C124.397 151.751 124.313 151.787 124.234 151.821C122.977 152.355 123.291 150.218 124.548 148.883C125.805 147.547 127.376 144.075 127.061 142.205C125.491 145.143 122.349 149.15 117.322 150.485C112.294 151.821 109.467 148.616 113.237 145.677C117.007 142.739 119.835 140.068 120.777 137.664C121.134 136.756 120.637 137.068 119.644 137.693C118.01 138.722 115.031 140.596 112.294 139.267C107.896 137.13 108.524 130.987 111.98 129.918C113.084 129.577 114.734 129.481 116.509 129.377C120.289 129.158 124.635 128.905 125.491 126.179C123.606 127.247 112.609 128.85 112.294 122.172C111.98 115.495 111.352 110.954 109.781 107.214C109.259 105.972 109.014 104.347 108.76 102.652C108.247 99.244 107.691 95.5533 104.754 94.126C103.915 93.7188 100.447 93.8744 95.7091 94.696C90.8295 110.33 97.4115 139.546 100.355 144.342C104.125 150.486 108.524 152.89 112.923 154.759C117.321 156.629 126.119 155.561 128.318 154.225C129.037 153.789 129.589 153.352 130.092 152.953C131.13 152.131 131.968 151.467 133.659 151.287C136.173 151.02 140.258 150.219 141.828 148.616C141.941 148.501 142.052 148.386 142.163 148.271C143.593 146.791 144.927 145.411 148.427 145.411C152.197 145.411 155.339 142.74 156.595 141.137C157.396 140.116 158.069 139.637 159.02 139.286Z" fill="#1771EA"/>
<path d="M103.4 148.417C104.962 146.682 107.614 144.244 110.095 143.54C113.866 142.472 111.98 141.938 108.838 143.006C105.697 144.074 105.068 143.273 104.754 139.801C104.44 136.328 105.697 130.185 107.582 125.911C109.467 121.637 111.98 108.282 106.639 103.207C104.182 100.873 98.9999 101.138 94.1493 103.535C92.9365 119.448 97.9057 140.35 100.355 144.341C101.332 145.932 102.35 147.272 103.4 148.417Z" fill="#2068D9"/>
<path d="M155.967 136.864C158.732 133.659 158.376 127.871 157.852 125.378C158.69 127.516 159.863 132.537 157.852 135.529C155.339 139.268 155.339 137.665 155.967 136.864Z" fill="#3881F2"/>
<path d="M80.2486 214.056C89.5485 210.424 101.928 212.187 106.955 213.522C107.583 213.682 108.212 213.522 109.468 209.783C110.725 206.044 109.783 196.695 109.468 195.894C109.154 195.092 109.154 194.558 109.468 193.223C111.039 184.408 105.07 163.307 102.556 151.554C100.042 139.802 103.499 128.85 106.955 120.837C110.411 112.824 107.583 102.407 106.64 91.7229C105.698 81.0386 95.0156 80.2374 80.5626 77.299C66.1097 74.3611 47.5724 74.361 39.4034 91.99C31.2343 109.619 38.7749 132.59 39.4034 145.678C40.0315 158.766 33.748 169.985 29.6632 181.47C25.5789 192.956 26.5215 201.503 25.2645 208.982C24.259 214.965 26.3117 217.529 27.4641 218.063C27.5688 219.399 27.7781 222.978 27.7781 226.611C27.7781 231.151 29.6633 233.555 34.3761 233.288C39.0889 233.021 46.6299 230.35 53.2278 226.076C59.8258 221.803 68.6233 218.597 80.2486 214.056Z" fill="#217BF4"/>
<path d="M80.5629 163.574C72.0169 169.984 61.5018 168.737 57.3127 167.313C57.3127 168.47 59.3237 171.373 67.3669 173.724C77.4211 176.662 84.3331 169.984 87.1608 164.642C89.4233 160.368 94.3873 154.314 96.5869 151.821C94.8064 153.067 89.1088 157.163 80.5629 163.574Z" fill="#3881F2"/>
<path d="M106.955 213.522C101.928 212.187 89.5485 210.424 80.2482 214.056C78.9725 214.555 77.7302 215.037 76.5213 215.506C66.7183 219.314 59.1018 222.272 53.2278 226.076C46.6299 230.35 39.0889 233.021 34.3761 233.288C29.6633 233.555 27.7781 231.151 27.7781 226.61C27.7781 222.978 27.5688 219.399 27.4641 218.063C26.3117 217.529 24.259 214.964 25.2645 208.982C25.6677 206.584 25.8444 204.076 26.0335 201.396C26.4335 195.72 26.8885 189.273 29.6632 181.47C30.6082 178.813 31.671 176.17 32.7385 173.515C36.2855 164.693 39.8862 155.738 39.4034 145.678C39.2366 142.209 38.5846 138.045 37.8677 133.47C35.8811 120.787 33.3997 104.946 39.4034 91.9895C39.5065 91.7673 39.6112 91.5476 39.7174 91.3311C52.0683 81.4903 64.3169 77.3001 74.5852 76.3137C76.6276 76.5661 78.6317 76.9064 80.5626 77.2989C82.1094 77.6133 83.6132 77.9035 85.0665 78.1837C90.694 79.2688 95.5641 80.2082 99.2516 81.8569C99.8837 82.4651 100.361 83.088 100.671 83.7086C105.07 92.5228 95.9582 102.673 88.7317 107.748C81.5052 112.823 83.0763 114.959 91.2453 112.822C98.4857 110.928 97.3342 111.552 88.4463 116.368C87.3067 116.986 86.0397 117.672 84.647 118.431C72.3936 125.109 86.218 122.437 96.2722 120.3C106.326 118.164 104.441 123.239 102.242 125.375C101.321 126.271 100.289 126.79 99.3785 127.25C98.1148 127.887 97.0834 128.407 96.9007 129.649C96.5863 131.786 94.3871 134.19 91.5594 135.258C91.3361 135.343 91.1088 135.427 90.8783 135.512C88.1955 136.509 85.1266 137.648 83.3903 140.6C81.5052 143.806 76.7924 144.339 71.137 144.072C65.4812 143.805 57.9407 145.941 64.8531 151.551C71.7651 157.16 81.5052 153.153 86.5321 151.016C74.9072 163.303 58.2547 154.222 55.1129 149.948C51.9712 145.674 50.4001 144.339 46.3154 145.407C42.2311 146.476 40.9745 151.549 44.7447 152.618C46.4153 153.091 48.1476 152.883 49.559 152.713C51.3327 152.5 52.5993 152.348 52.5993 153.687C52.5993 155.721 47.6469 159.287 43.2676 162.44C42.4731 163.012 41.6977 163.57 40.9744 164.104C36.2612 167.576 41.6026 170.514 45.0588 171.583C48.515 172.651 47.5724 173.986 41.917 179.329C34.062 187.076 49.1435 194.287 62.9679 186.007C74.0276 179.383 83.7044 178.795 87.1606 179.329C83.181 180.309 73.5248 183.817 66.7382 190.014C61.0179 195.237 53.4408 196.695 46.7035 197.992C43.4491 198.618 40.3905 199.206 37.8323 200.164C29.9773 203.102 34.062 208.978 40.66 209.245C44.1795 209.388 50.3806 206.034 57.4992 202.185C63.7266 198.817 70.6558 195.071 77.1064 192.952C90.9309 188.411 100.357 191.884 105.384 193.754C97.2148 193.22 74.2787 199.897 62.3394 206.575C56.5646 209.805 52.2598 211.035 48.5011 212.109C44.4884 213.256 41.0975 214.225 37.2038 217.259C29.6633 223.136 39.7174 227.142 46.9439 226.074C50.1724 225.596 54.7173 222.987 59.907 220.007C66.3342 216.317 73.7497 212.06 80.8767 210.582C90.4102 208.605 102.471 210.743 108.453 212.343C107.818 213.59 107.386 213.631 106.955 213.522Z" fill="#1771EA"/>
<path d="M38.9969 141.197C40.2969 139.624 42.1698 137.235 43.1736 135.528C44.7443 132.858 45.6869 131.789 47.8864 133.659C50.0856 135.528 53.5418 135.262 55.427 133.125C55.39 133.272 55.3529 133.417 55.3163 133.561C54.4219 137.069 53.8014 139.504 60.1398 138.734C62.4576 138.452 65.7837 138.83 69.0007 139.196C74.9419 139.87 80.5117 140.503 78.6775 136.864C75.8494 131.255 73.9642 117.633 79.62 112.825C84.1442 108.979 87.9984 103.565 89.3598 101.339C91.8734 96.2643 91.6218 86.3817 70.5084 87.45C62.1272 87.8739 52.9858 86.1162 44.4322 84.4177C42.5005 86.4748 40.8001 88.9741 39.4029 91.9893C33.3993 104.946 35.8811 120.787 37.8677 133.47C38.2976 136.214 38.7044 138.81 38.9969 141.197Z" fill="#2068D9"/>
<path d="M94.7013 203.638C101.237 203.852 102.661 199.809 102.556 197.762C102.556 196.159 104.441 196.159 103.499 203.104C102.556 210.049 91.2451 206.309 81.5054 207.11C71.7653 207.912 57.9408 214.056 54.4846 215.925C71.4512 203.371 86.5323 203.371 94.7013 203.638Z" fill="#3881F2"/>
<path d="M101.925 194.824C102.658 197.584 103.999 204.547 103.496 210.316M32.4885 219.665C32.4885 221.623 32.6772 226.342 33.4311 229.548L32.4885 219.665ZM40.0295 216.193C40.7623 218.596 42.1657 223.938 41.9146 226.075L40.0295 216.193ZM45.0563 213.521C45.5802 215.391 46.6274 220.573 46.6274 226.342L45.0563 213.521ZM51.3403 214.055V221V214.055ZM56.3671 210.316C56.9956 211.919 58.064 215.872 57.3097 218.863L56.3671 210.316ZM61.3944 207.378C61.9182 209.159 62.9655 213.415 62.9655 216.193L61.3944 207.378ZM67.6783 205.775V212.72V205.775ZM73.6478 202.303C74.1716 204.618 74.9048 210.102 73.6478 213.521V202.303ZM78.0466 200.967C78.7798 202.481 80.1204 206.31 79.6176 209.515L78.0466 200.967ZM85.5871 199.632C85.5871 201.947 85.5871 206.79 85.5871 207.645V199.632ZM89.6718 197.495C89.9859 199.632 90.6144 204.814 90.6144 208.446L89.6718 197.495ZM98.1549 200.7C98.2596 202.837 98.2807 207.592 97.5268 209.515L98.1549 200.7Z" stroke="#2068D9" stroke-width="1.07894"/>
<path d="M35.6331 214.858C56.1601 205.51 99.5397 187.721 107.583 194.559" stroke="#3881F2" stroke-width="1.07894"/>
<path d="M25.2645 208.981C24.259 214.964 26.3117 217.528 27.4641 218.062C27.5138 218.699 27.5879 219.847 27.6511 221.268C30.5214 218.953 36.8897 214.002 39.4034 212.72C34.6905 214.056 28.4667 216.727 27.6511 210.85C26.8356 204.974 29.9773 198.831 31.8624 195.626C33.748 192.42 36.0025 182.804 33.6186 171.319C32.2645 174.716 30.8681 178.081 29.6632 181.469C25.5789 192.954 26.5215 201.502 25.2645 208.981Z" fill="#2068D9"/>
<path d="M2.32136 222.414C2.75084 216.186 3.84308 208.612 7.04574 203.947C9.61232 200.208 10.7957 201.012 13.7022 201.585C15.4202 203.732 18.3836 210.904 16.4937 222.414C14.1317 236.801 1.56627 233.365 2.32136 222.414Z" fill="#FEBE9D"/>
<path d="M0.756502 213.522C1.25923 212.454 1.59438 210.94 1.69906 210.317C2.64163 203.372 1.69906 196.695 1.69906 185.21C1.69906 173.724 4.52716 161.704 7.04041 157.43C9.55405 153.157 8.92553 149.417 10.1826 147.281C11.4392 145.144 15.2095 142.74 13.9528 135.528C12.6958 128.316 17.0946 127.515 17.409 118.433C17.7231 109.352 19.6082 97.8661 25.5781 89.8527C31.5475 81.8397 53.541 76.4975 55.7406 91.7227C57.9398 106.947 49.7708 117.098 46.3145 123.775C42.8587 130.453 38.4599 144.876 37.8314 148.616C37.2029 152.355 34.3752 163.04 34.3752 167.58C34.3752 172.121 33.1186 180.401 31.2335 187.613C29.3483 194.825 25.2636 203.639 24.007 204.441C22.7504 205.242 22.1219 205.776 22.1219 207.112C22.1219 208.447 21.4934 212.988 21.1793 214.591C20.8648 216.193 20.5508 216.727 19.6082 216.193C18.6656 215.659 17.0946 215.659 14.2669 215.659C11.4392 215.659 6.72635 216.193 3.89865 215.926C1.07095 215.659 0.12839 214.858 0.756502 213.522Z" fill="#217BF4"/>
<path d="M13.0115 206.312C6.97912 207.594 3.79516 206.49 2.95728 205.777C4.73772 206.312 8.96932 206.745 12.3829 205.777C15.2106 204.975 19.1907 205.065 20.552 205.51C19.086 205.51 15.5251 205.67 13.0115 206.312Z" fill="#3881F2"/>
<path d="M17.4103 206.844C17.0962 207.912 16.7192 210.317 17.7247 211.385C18.7302 212.453 17.9341 213.433 17.4103 213.789M6.41351 209.248C6.62288 210.049 6.79046 212.079 5.7854 213.789L6.41351 209.248ZM10.8123 207.378L10.4982 213.254L10.8123 207.378Z" stroke="#2068D9" stroke-width="1.07894"/>
<path d="M17.4274 215.711C18.245 214.273 19.176 212.043 18.981 210.049C18.6665 206.844 14.2678 205.776 11.7545 206.31C14.8963 204.975 21.8087 202.037 23.6938 195.359C25.579 188.682 24.9505 184.675 18.981 184.141C17.724 184.141 16.4674 183.874 20.8661 180.668C25.2645 177.463 32.1769 171.32 25.579 167.58C18.981 163.841 14.5822 160.903 13.6397 156.896C16.7814 159.033 20.5517 161.437 22.1228 161.704C23.4817 161.935 23.4299 161.766 22.7815 159.643C22.68 159.311 22.5642 158.932 22.4368 158.499C21.4942 155.293 19.2951 147.28 19.2951 144.876C20.2376 147.815 21.8087 152.355 25.893 154.225C29.9777 156.095 31.2344 151.02 30.6059 147.547C29.9777 144.075 29.6633 141.404 33.748 138.466C37.8323 135.528 44.4303 125.111 39.7175 120.57C35.0046 116.029 26.5215 107.749 26.8356 101.338C27.08 96.3544 26.5645 94.761 24.2559 91.788C24.6726 91.1237 25.1133 90.4776 25.579 89.8527C29.8452 84.1261 42.2952 79.7639 49.8556 83.2973C50.5625 83.7236 51.2627 84.1559 51.9553 84.5938C53.891 86.1437 55.2702 88.4611 55.7415 91.7227C57.5725 104.398 52.2168 113.556 48.3773 120.121C47.6051 121.441 46.8942 122.657 46.3154 123.775C42.8596 130.453 38.4608 144.876 37.8323 148.616C37.6381 149.773 37.2325 151.596 36.7656 153.697C35.7243 158.381 34.3761 164.445 34.3761 167.58C34.3761 172.121 33.1195 180.401 31.2344 187.613C29.3492 194.825 25.2645 203.639 24.0079 204.441C22.7513 205.242 22.1228 205.776 22.1228 207.112C22.1228 208.447 21.4943 212.988 21.1802 214.591C20.8661 216.193 20.5517 216.727 19.6091 216.193C19.0992 215.904 18.405 215.772 17.4274 215.711Z" fill="#1771EA"/>
<path d="M41.0865 137.076C39.4414 142.068 38.1517 146.717 37.8329 148.615C37.6382 149.772 37.233 151.595 36.7661 153.696C35.7248 158.38 34.3767 164.444 34.3767 167.579C34.3767 168.997 34.2545 170.778 34.0284 172.778C32.363 169.512 29.6865 165.916 26.2076 165.177C20.7684 164.02 24.0395 164.065 26.4433 164.098C26.8166 164.103 27.1689 164.108 27.4646 164.108C29.6638 164.108 30.6064 163.039 28.0927 161.703C26.0822 160.635 23.0659 154.847 21.8088 152.087C23.1705 154.847 27.1502 160.368 32.1775 160.368C33.7481 160.368 35.0052 159.032 34.0626 156.361C33.2251 153.988 35.8602 143.813 41.0865 137.076Z" fill="#2068D9"/>
<path d="M57.676 73.0803L59.8609 60.657L75.4268 63.8978C75.0629 65.5183 75.0992 70.5416 75.9729 76.5914C76.847 82.6409 79.4323 85.8639 80.8887 86.8542L57.676 73.0803Z" fill="#FEBE9D"/>
<path d="M59.9957 60.6567L75.2452 63.8884C74.9781 65.0993 74.9311 68.2144 75.2842 72.2378C64.3997 70.945 60.5566 63.9784 59.9957 60.6567Z" fill="#F2AD8A"/>
<path d="M51.331 114.912C50.759 111.189 53.334 110.391 55.6227 109.327C57.0198 108.678 58.737 107.831 59.342 106.18C63.3587 107.753 67.3753 108.149 73.6477 107.341C73.9339 111.105 74.5632 119.805 74.7921 124.485C75.0783 130.336 77.0812 139.643 70.5004 136.452C63.9199 133.261 61.9174 132.995 58.77 133.793C55.6227 134.591 53.334 133.793 53.0478 128.74C52.7616 123.687 51.9034 115.975 51.331 114.912Z" fill="#8CB9FF"/>
<path d="M58.219 133.941C57.3433 132.063 56.0206 127.828 56.4402 122.911C57.0078 116.254 58.711 110.929 60.6981 115.988C62.2874 120.035 62.6851 124.775 62.6851 126.638C63.8207 126.017 66.148 123.39 66.3753 117.851C66.6591 110.928 66.943 111.194 67.7948 115.188C68.6462 119.182 68.93 119.715 69.7818 115.188C69.8956 114.584 69.9892 114.036 70.0736 113.54C70.6125 110.385 70.7972 109.303 73.5823 108.827C73.5417 108.275 73.5047 107.776 73.4721 107.342C67.2486 108.151 63.2638 107.755 59.2786 106.18C58.6784 107.833 56.9747 108.681 55.5884 109.331C55.3993 109.42 55.2078 109.507 55.0168 109.594C52.9135 110.55 50.8098 111.506 51.3305 114.923C51.8981 115.988 52.7495 123.71 53.0337 128.769C53.3024 133.558 55.3519 134.529 58.219 133.941Z" fill="#7EAEFA"/>
<path opacity="0.5" d="M51.889 117.346C52.9661 115.085 54.8513 111.972 56.7364 111.444C59.5816 110.648 60.1508 110.117 61.0042 109.321C61.8576 108.524 62.7114 109.055 62.9956 110.117C63.2802 111.179 64.134 110.117 64.9874 109.056C65.8408 107.994 67.548 108.79 67.8326 109.587C67.9342 109.871 68.29 109.682 68.8998 109.356C69.8472 108.852 71.4083 108.02 73.5824 108.131C73.5613 107.848 73.5414 107.583 73.5231 107.339C67.2853 108.145 63.2914 107.751 59.297 106.18C58.6952 107.827 56.988 108.673 55.5984 109.322C55.4089 109.41 55.2171 109.497 55.0256 109.583C52.9172 110.537 50.8091 111.489 51.3306 114.896C51.4993 115.211 51.6928 116.108 51.889 117.346Z" fill="#70A2F2"/>
<path d="M72.0657 67.9571C61.6979 66.6742 53.4055 57.7704 50.6478 53.6717C45.1329 55.0088 44.0299 54.2055 43.7541 50.4631C43.4782 46.7207 50.6478 44.8495 52.0266 38.7013C53.4055 32.5532 58.0928 21.0593 71.3289 15.7127C84.5647 10.3666 95.8703 27.742 96.1461 33.0885C96.422 38.4347 95.5984 51.1553 92.2855 58.4833C88.7792 66.2396 85.026 69.5612 72.0657 67.9571Z" fill="#FEBE9D"/>
<path d="M51.176 53.1403C45.6926 54.4734 44.4045 54.5084 44.1303 50.7783C38.9211 51.8443 27.6803 55.7276 24.3901 62.7343C20.2775 71.4921 24.3901 72.8908 27.1318 74.2231C29.8736 75.5549 28.5027 79.2846 24.9386 79.8176C21.3745 80.3505 21.1003 77.6864 20.826 76.0879C19.1809 83.2809 24.9386 83.2809 27.4061 82.2154C25.761 86.478 26.3095 89.6751 30.1478 90.7407C33.9861 91.8062 30.1478 95.8026 30.1478 99.5322C30.1478 103.262 34.2604 105.393 34.5346 108.058C34.8089 110.722 38.0987 112.054 41.3885 113.119C44.6788 114.185 43.3079 115.517 41.9371 117.915C40.5662 120.312 42.7594 122.177 43.0337 125.374C43.3079 128.571 45.5011 128.838 48.2428 129.371C45.5011 124.842 47.1462 123.243 48.7913 121.911L48.8427 121.87C50.4647 120.556 51.8013 119.474 51.2588 115.784C50.7103 112.054 53.1778 111.255 55.3714 110.189C57.5646 109.123 60.5806 107.525 58.387 102.729C56.1938 97.9337 63.0481 94.7366 64.6928 89.9414C66.3379 85.1458 62.4996 79.2846 60.8545 77.1535C59.2097 75.0219 57.5646 71.8253 57.0161 70.493C56.468 69.1611 57.0161 69.1611 57.2904 69.4274C58.6612 70.7597 58.9355 69.6937 59.2097 68.3619C59.4291 67.2959 59.6667 64.1661 59.7578 62.7343C55.5768 59.7645 52.6759 55.3753 51.176 53.1403Z" fill="#2B2B39"/>
<path d="M74.9534 71.5588V68.1126C81.7695 68.5946 85.6607 67.3428 88.4423 64.6321C94.0989 71.2925 89.0911 77.1537 88.2687 78.486C86.6236 76.3545 83.3338 75.5552 82.511 75.5552C81.6887 75.5552 80.8663 75.8215 80.0435 74.4896C79.2212 73.1574 78.9469 71.5588 77.3018 70.4933C75.9859 69.6407 75.1878 70.8487 74.9534 71.5588Z" fill="#2B2B39"/>
<path d="M43.7502 65.3801C45.4089 66.5946 48.2581 70.013 46.3845 73.9695" stroke="#151523" stroke-width="0.8"/>
<path d="M51.1752 68.3865C54.717 71.1143 60.975 77.8898 57.6689 83.1694C53.5364 89.769 52.6507 92.1449 52.6507 97.1606" stroke="#151523" stroke-width="0.8"/>
<path d="M44.2102 101.026C46.1013 100.232 49.2602 96.9504 46.7637 90.1749C44.2667 83.3994 47.4256 79.4114 49.3167 78.2646" stroke="#151523" stroke-width="0.8"/>
<path d="M34.6957 80.8411C32.4177 83.0395 29.2286 87.9111 34.6957 89.8106C41.5297 92.1849 43.17 94.5592 40.9832 99.3079" stroke="#151523" stroke-width="0.8"/>
<path d="M33.5315 94.1541C34.2324 94.974 35.2132 97.3241 33.5315 100.167" stroke="#151523" stroke-width="0.8"/>
<path d="M29.9746 65.012C29.032 65.9024 27.7754 68.3241 30.2886 70.8883C33.4308 74.0937 33.1167 75.9633 31.5457 78.1" stroke="#151523" stroke-width="0.8"/>
<path opacity="0.5" d="M36.3056 53.9708C35.0729 55.6254 33.8557 57.4835 32.9091 59.3511C32.0119 61.1208 31.3512 62.912 31.1569 64.5535C30.9627 66.1947 31.2322 67.714 32.2348 68.9073C32.4737 69.1911 32.7069 69.4658 32.9334 69.7321C33.8358 70.7929 34.6287 71.7259 35.1999 72.6115C35.9104 73.7133 36.2475 74.7001 36.0306 75.7159C35.8121 76.736 35.0232 77.839 33.339 79.1474C32.1429 80.0768 30.5089 81.099 28.3404 82.2585C28.2246 82.5284 28.1187 82.7943 28.0236 83.055C30.5364 81.7426 32.4116 80.5915 33.7629 79.5418C35.496 78.1957 36.3956 76.9948 36.6488 75.8114C36.9027 74.6236 36.4939 73.5071 35.7512 72.3548C35.1593 71.4369 34.3357 70.4689 33.431 69.4049L33.4306 69.4045C33.2069 69.1414 32.978 68.8723 32.7463 68.5969C31.8639 67.5468 31.5968 66.1744 31.7823 64.6069C31.9678 63.0402 32.6026 61.3051 33.4863 59.5625C34.5598 57.4449 35.99 55.3341 37.3911 53.5273C37.0289 53.6702 36.6667 53.8183 36.3056 53.9708Z" fill="#1C1C2A"/>
<path opacity="0.5" d="M53.1952 56.2927C52.6511 58.1074 52.2371 60.5582 52.3927 63.1797C52.5926 66.5443 53.733 70.2083 56.7625 73.1606C60.4623 76.7653 61.7691 79.3116 61.7691 81.512C61.7691 83.7223 60.4559 85.6627 58.6587 88.0868C56.85 90.5272 55.7845 92.931 55.9262 95.826C56.0492 98.3468 57.0861 101.209 59.2813 104.764C59.1706 104.153 58.9537 103.473 58.607 102.713C58.4923 102.462 58.4024 102.215 58.3351 101.972C57.1402 99.6026 56.563 97.5965 56.4755 95.8005C56.3417 93.0687 57.3388 90.7832 59.1045 88.4009C60.8826 86.0023 62.3191 83.9233 62.3191 81.512C62.3191 79.0899 60.8762 76.411 57.1513 72.7817C54.2413 69.946 53.1359 66.4201 52.9416 63.1486C52.7995 60.7536 53.1466 58.5047 53.6247 56.7831C53.4774 56.6175 53.3341 56.4543 53.1952 56.2927Z" fill="#1C1C2A"/>
<path opacity="0.5" d="M47.7213 129.37C47.178 128.741 46.6617 128.005 46.2593 127.187C45.3661 125.371 45.0377 123.158 46.2044 120.781C47.58 117.978 47.0761 115.483 46.6124 113.187C46.5503 112.88 46.489 112.577 46.4333 112.277C46.1936 110.994 46.0476 109.772 46.3031 108.547C46.557 107.331 47.2122 106.089 48.6209 104.782C50.1163 103.394 50.6772 101.958 50.7895 100.467C50.8834 99.2181 50.6605 97.9277 50.4352 96.6237C50.3958 96.3956 50.356 96.1667 50.3182 95.9379C50.0614 94.3855 49.8712 92.7925 50.2091 91.1128C50.5459 89.4394 51.4116 87.6598 53.3039 85.7503L53.3115 85.7424L53.3186 85.7336C54.6314 84.1709 54.8316 82.0593 54.1239 79.9218C53.4352 77.8424 51.8837 75.7161 49.6128 73.973C50.264 72.7307 50.7071 69.7625 48.394 65.8701C46.889 63.3361 45.9528 61.1039 45.8529 58.9584C45.7801 57.3981 46.1487 55.8653 47.0924 54.2791C46.8787 54.2695 46.6812 54.2476 46.4989 54.2134C45.595 55.8075 45.2284 57.375 45.3036 58.9827C45.4095 61.2583 46.3986 63.5809 47.9184 66.1384C50.2593 70.0786 49.6208 72.9222 49.0536 73.852C47.3305 74.9797 44.9498 77.1355 43.3166 80.0002C41.7435 82.7595 40.8583 86.189 41.9414 89.9859C41.8498 89.9473 41.7558 89.9091 41.6603 89.8709C37.9852 88.4121 36.7318 86.7319 36.606 85.1417C36.4774 83.5137 37.5099 81.8451 38.7447 80.3748C39.9898 78.8921 41.601 76.6455 42.2693 74.1776C42.9424 71.6919 42.6582 68.9716 40.0956 66.6132C38.1934 64.8626 37.701 62.6081 37.871 60.4718C38.0413 58.3299 38.8768 56.333 39.5933 55.1551L39.12 54.8817C38.3697 56.1156 37.5008 58.191 37.3225 60.4304C37.1441 62.675 37.66 65.109 39.7179 67.0029C42.105 69.1997 42.3704 71.7038 41.7376 74.0411C41.0995 76.3963 39.5487 78.5708 38.3188 80.0356C37.0789 81.5124 35.9114 83.3275 36.0579 85.1827C36.2071 87.0754 37.7034 88.879 41.4529 90.3672C41.7411 90.4819 42.0098 90.5993 42.2598 90.7195C43.6143 91.3707 44.4068 92.096 44.8208 92.8419C45.2324 93.5834 45.2865 94.3767 45.1022 95.2023C44.7273 96.8788 43.3859 98.6251 42.1643 100.163L42.0098 100.357C41.7746 100.652 41.5469 100.939 41.3367 101.212C40.0801 102.845 39.4922 104.243 39.5288 105.666C39.5559 106.726 39.9284 107.771 40.578 108.909C39.6872 108.247 38.7936 107.517 38.0604 106.684C37.0152 105.496 36.3138 104.12 36.4077 102.459C36.4519 101.676 36.6732 100.82 37.1302 99.8797C37.7531 98.5992 38.195 97.4512 38.3733 96.4446C38.5516 95.4355 38.4692 94.5431 38.0115 93.7996C37.5537 93.056 36.7481 92.5063 35.5766 92.1258C34.5744 91.8002 33.2867 91.5924 31.677 91.4973C31.7988 91.6661 31.8812 91.8512 31.9314 92.051C33.3759 92.1513 34.519 92.3471 35.4027 92.6341C36.4997 92.9904 37.1724 93.4788 37.5398 94.075C37.9068 94.6713 37.9963 95.42 37.8311 96.3534C37.6656 97.2896 37.248 98.3858 36.6334 99.6504C36.1546 100.636 35.9118 101.551 35.8601 102.405C35.5715 103.572 35.1424 105.439 34.7841 107.285C34.7427 107.498 34.7021 107.711 34.6627 107.923C34.6707 107.973 34.6771 108.022 34.6818 108.071C34.7232 108.473 34.8323 108.844 34.9991 109.189C35.0942 108.61 35.2049 108 35.3243 107.384C35.5452 106.247 35.7932 105.101 36.0181 104.118C36.2967 105.222 36.8973 106.185 37.6433 107.033C38.7419 108.281 40.174 109.299 41.3948 110.164L41.7853 109.799C40.6943 108.204 40.1107 106.916 40.0785 105.653C40.0463 104.397 40.5582 103.117 41.7766 101.534C41.8649 101.419 41.9565 101.301 42.0508 101.182C42.017 102.111 42.0444 103.322 42.2049 104.61C42.4222 106.357 42.8871 108.268 43.7927 109.812C44.6043 111.196 44.2838 112.83 43.4838 114.368C43.483 114.369 43.4822 114.371 43.481 114.372C43.6406 114.69 43.6267 115.039 43.5013 115.428C43.6696 115.163 43.8289 114.889 43.9742 114.61C44.8057 113.012 45.2188 111.163 44.2703 109.546C43.4161 108.089 42.9639 106.258 42.7506 104.546C42.5436 102.883 42.5643 101.353 42.6479 100.429C43.84 98.9272 45.2387 97.1089 45.6396 95.3161C45.8453 94.3947 45.7916 93.4652 45.3044 92.5867C44.8315 91.7345 43.9666 90.9607 42.6081 90.29C41.3678 86.4804 42.2152 83.0361 43.7974 80.2601C45.3462 77.5439 47.5932 75.4804 49.2451 74.3731C51.4598 76.0652 52.948 78.1163 53.6004 80.0866C54.2663 82.0983 54.0566 84.0021 52.9003 85.3861C50.9479 87.3588 50.0284 89.2269 49.6694 91.0097C49.3115 92.7882 49.5165 94.4607 49.7752 96.023C49.8146 96.2599 49.8548 96.4939 49.8946 96.7248C50.1199 98.032 50.3297 99.2488 50.2409 100.428C50.1382 101.792 49.6335 103.103 48.2416 104.394C46.7629 105.766 46.0432 107.103 45.7642 108.441C45.4867 109.77 45.6503 111.077 45.8919 112.373C45.9496 112.682 46.0113 112.99 46.0734 113.298C46.5356 115.6 47.0005 117.916 45.7084 120.549C44.4554 123.102 44.814 125.489 45.7634 127.419C46.0806 128.064 46.4643 128.66 46.8771 129.196C47.1493 129.257 47.4312 129.313 47.7213 129.37Z" fill="#1C1C2A"/>
<path d="M24.7117 62.8645C27.4323 61.0319 30.3181 59.6567 31.037 61.2043C32.4031 64.1446 35.1348 62.2738 35.9544 60.1351C36.774 57.9968 37.047 58.5314 38.4131 61.7388C38.9978 63.1121 39.3824 62.4278 39.9098 61.4893C40.6139 60.2354 41.5728 58.5286 43.6036 60.6689C45.3152 62.4724 46.9002 60.6753 48.3885 58.9868C49.9882 57.1721 51.4769 55.4836 52.8923 58.5306C53.8126 60.5117 54.4849 62.6444 55.1178 64.6529C55.738 66.6196 56.3203 68.4674 57.0615 69.9373C56.9138 69.2324 57.315 69.2734 57.5363 69.4903C58.9024 70.8266 59.1755 69.7574 59.4489 68.4208C59.6674 67.3516 59.9043 64.2111 59.995 62.7745C55.8287 59.7948 52.669 55.3829 51.1744 53.1403C45.7104 54.4777 44.6966 54.5207 44.4232 50.7783C39.2327 51.8479 28.0317 55.7443 24.7535 62.7745C24.7395 62.8044 24.7256 62.8346 24.7117 62.8645Z" fill="#1C1C2A"/>
<path d="M56.9816 70.5248C56.4327 69.1886 56.9816 69.1886 57.2558 69.4557C57.8768 70.0603 58.2728 70.1726 58.5455 69.9903C60.4019 71.7719 64.6634 75.7627 66.8582 77.4727C69.053 79.1831 74.7232 81.036 77.2838 81.7485C76.3571 79.8781 74.5898 75.2281 74.9337 71.5936C75.1682 70.8811 75.967 69.6695 77.2838 70.5248C78.9301 71.5936 79.2043 73.1969 80.0275 74.5331C80.8506 75.8694 81.6734 75.6023 82.4965 75.6023C83.3197 75.6023 86.6119 76.4039 88.2582 78.5418C88.7152 78.8981 90.014 79.7177 91.5504 80.1452C93.471 80.6797 95.9401 83.3522 95.1169 86.0243C94.2942 88.6967 91.0015 91.3692 89.3556 94.3087C87.7093 97.2483 85.2402 106.067 76.7352 107.671C75.2533 107.95 73.8884 108.175 72.6199 108.347C66.6051 109.159 62.7536 108.761 58.9017 107.18C59.2723 106.121 59.2082 104.734 58.3532 102.86C56.1584 98.0499 63.0171 94.8433 64.6634 90.0329C66.3097 85.2226 62.4686 79.3435 60.8223 77.2056C59.1764 75.0677 57.5301 71.8607 56.9816 70.5248Z" fill="#8CB9FF"/>
<path d="M69.2805 78.6921C70.8377 80.8571 73.8723 83.8799 77.6518 84.2381C83.2654 84.7707 84.067 79.7131 83.5325 77.3173C81.1267 79.181 76.8497 80.7779 77.1168 77.0514C77.1542 76.5324 77.1964 76.0392 77.237 75.5699C77.4273 73.3548 77.5726 71.6663 76.9146 70.2779C75.7519 69.6741 75.0434 70.7906 74.8269 71.4625C74.4921 75.0823 76.214 79.7139 77.1168 81.5772C75.2898 81.0573 71.8375 79.9285 69.2805 78.6921Z" fill="#7EAEFA"/>
<path d="M66.9009 107.722C66.1045 107.516 65.3215 107.273 64.5386 106.992C64.9629 105.934 64.8896 104.548 63.9104 102.674C62.3708 99.7297 64.7209 97.386 67.2066 94.9074C68.7793 93.3391 70.4061 91.7167 71.1369 89.8535C72.4759 86.4383 70.6445 82.4841 68.7952 79.7141C71.1449 81.0233 74.7814 82.9418 77.4204 83.9772C81.5052 85.5797 80.5626 88.518 75.2212 85.8468C73.0221 84.7784 73.0221 88.2509 77.4204 90.1205C81.8192 91.9902 89.9882 91.7231 92.8159 85.3126C95.6436 78.9021 99.0999 79.7034 96.9007 85.8468C94.7011 91.9902 90.3023 98.6677 86.8465 100.805C85.1723 101.84 82.761 102.123 80.2907 102.413C77.6617 102.721 74.9657 103.037 73.022 104.277C70.1303 106.121 69.3179 107.621 69.2554 108.212C68.761 108.133 68.2762 108.041 67.7977 107.936L66.9009 107.722Z" fill="#7EAEFA"/>
<path opacity="0.5" d="M58.86 106.18C58.9894 105.239 58.7991 104.078 58.1156 102.622C56.738 99.6867 58.8413 97.3502 61.0655 94.8791C62.4726 93.316 63.9287 91.6984 64.5823 89.8411C64.6798 89.5644 64.7582 89.2842 64.8199 89.0012L67.9561 91.9714C69.924 93.8351 76.6716 94.0998 80.0454 93.3025C77.7961 94.6339 74.9847 94.8986 69.643 94.0998C64.3008 93.3013 62.6143 95.6975 65.7067 97.2952C68.7995 98.8926 77.7961 96.4964 80.8889 94.366C78.089 98.9463 72.7541 99.5991 68.8485 100.077C68.4401 100.127 68.0472 100.175 67.6746 100.225C66.303 100.411 64.7948 100.273 63.4474 100.15C60.9286 99.9195 58.9718 99.7408 59.5215 101.823C60.1274 104.118 59.4184 105.583 58.86 106.18Z" fill="#70A2F2"/>
<path d="M62.0138 26.2987C63.7524 20.0976 69.077 19.973 71.5222 20.6859C72.8803 20.9411 71.7941 17.746 76.4122 17.2114C81.0307 16.6768 84.0192 19.6172 85.3777 21.7555C86.7358 23.8938 87.8225 26.0321 89.9958 27.9029C91.0824 31.1103 94.6143 34.5852 95.4295 35.3869C95.4295 36.1889 95.7435 41.5016 95.7435 43.907C100.362 40.4325 98.4176 37.2581 99.5047 34.3177C100.374 31.9657 99.6857 30.4866 99.2328 30.0411C99.3235 28.7937 99.396 25.925 98.9609 24.4283C98.4176 22.5571 96.5161 22.2901 95.7009 22.2901C96.2443 20.9534 95.7009 19.6172 94.8861 19.0822C94.071 18.5477 93.2562 17.2114 92.1691 15.0731C91.0825 12.9348 86.7358 9.46009 84.834 8.65819C82.9325 7.85633 82.9325 6.5199 82.3892 5.98533C75.3255 -0.162286 69.077 2.51057 67.7189 3.04518C66.3604 3.57976 65.5456 3.04519 65.0023 2.77798C54.4068 -3.63692 47.6149 5.45084 45.7135 8.1237C34.3032 12.9349 30.228 19.0826 31.0432 27.6358C31.858 36.1889 29.4132 39.3964 27.5114 41.2676C25.6095 43.1384 26.1528 45.0096 27.7828 47.1479C30.7713 51.4244 25.6095 51.959 23.7081 53.0281C21.8062 54.0973 23.1648 57.0372 22.3496 58.3739C21.5344 59.7101 21.8062 62.383 23.9795 64.5212C27.2395 58.3739 36.4765 55.701 41.6383 54.6319C46.8002 53.5627 51.6901 46.3458 55.4934 43.1384C59.2971 39.9309 59.8405 34.0502 62.0138 26.2987Z" fill="#2B2B39"/>
<path opacity="0.5" d="M54.8735 43.7303C55.2946 37.2474 56.5576 29.5154 59.1863 23.6638C60.8031 20.0643 62.9199 17.2151 65.6366 15.7829C68.2979 14.3802 71.5877 14.3106 75.6617 16.3318C75.6096 16.7327 75.5037 17.1124 75.3612 17.4671C75.5566 17.4137 75.7664 17.3664 75.9921 17.3261C76.1079 16.9715 76.1895 16.5957 76.2253 16.2013C76.3459 14.8583 75.9284 13.3318 74.5675 11.7337C73.1047 10.0157 71.6017 8.698 70.2638 7.52521C69.8535 7.16582 69.459 6.81988 69.086 6.48035C67.9404 5.43771 66.9947 4.45279 66.3734 3.29962C66.1083 3.26587 65.8766 3.19283 65.672 3.10864C66.1266 4.10729 66.7953 4.96782 67.5953 5.79532C66.2929 5.28001 64.6733 4.80892 62.9327 4.58089C59.4761 4.12795 55.4909 4.62973 52.5983 7.71798C49.5652 10.9567 47.0261 15.597 44.9753 20.3815C42.9222 25.17 41.3496 30.1228 40.2566 34.0014C39.1723 37.8481 37.3441 41.7537 34.9148 44.7915C33.1073 47.052 30.979 48.8181 28.5883 49.7348C28.5545 49.9713 28.4793 50.1862 28.3702 50.3836C31.0518 49.4721 33.3979 47.5555 35.3447 45.1207C37.8277 42.0156 39.6834 38.0423 40.7824 34.1435C41.8722 30.2769 43.4381 25.3475 45.4785 20.5881C47.5209 15.8239 50.0305 11.2502 53.0007 8.07893C55.379 5.53977 58.555 4.83587 61.5606 4.99091C58.6426 6.08939 53.708 8.95546 50.1141 14.4312C47.5599 18.3221 46.0604 23.983 44.5694 29.6106L44.4511 30.0572C42.9123 35.861 41.3532 41.5797 38.6576 45.4053C36.5134 48.4484 33.5165 50.3116 30.6311 51.4038C28.1907 52.3277 25.8406 52.6955 24.1768 52.7612C23.9643 52.8503 23.7692 52.9407 23.6 53.0354C23.4985 53.0923 23.4062 53.1544 23.3222 53.2213L23.3198 53.3021C25.0382 53.3475 27.8714 53.0215 30.8277 51.9022C33.7868 50.7821 36.8847 48.8619 39.1066 45.7086C41.8686 41.7891 43.4481 35.9665 44.9793 30.1913L45.0832 29.7992C46.5862 24.1267 48.0674 18.5374 50.573 14.7198C54.651 8.50683 60.4851 5.73859 62.9128 5.11729C64.7135 5.35874 66.3789 5.8672 67.6726 6.40484C64.3716 6.59439 58.9861 8.35179 56.6372 14.4817C55.8352 16.5754 54.7577 20.0034 53.4915 24.032L53.3956 24.3373C52.0864 28.5024 50.5782 33.2893 48.9598 37.9257C47.3405 42.5629 45.6134 47.0413 43.868 50.5906C43.1034 52.1458 42.3375 53.5178 41.5785 54.6447C41.5892 54.6423 41.6 54.6399 41.6111 54.6379C41.8611 54.5862 42.1106 54.5205 42.3594 54.4413C43.0285 53.3916 43.6969 52.1709 44.36 50.8223C46.1193 47.2443 47.8548 42.742 49.476 38.0984C51.0981 33.4533 52.6086 28.6588 53.9174 24.4945L54.0074 24.2079C55.2783 20.1638 56.3522 16.7474 57.1483 14.6692C59.6827 8.05473 65.9041 6.75997 68.7851 6.93587C69.1489 7.26545 69.5279 7.59754 69.9175 7.9393C71.2506 9.10819 72.7134 10.3906 74.1483 12.0757C75.2867 13.4126 75.6971 14.6601 75.6991 15.7531C71.5977 13.776 68.1837 13.8337 65.3779 15.3128C62.5048 16.827 60.3239 19.8036 58.6868 23.4485C55.9434 29.5548 54.6773 37.6463 54.2928 44.2808C54.4886 44.0902 54.6824 43.9063 54.8735 43.7303Z" fill="#1C1C2A"/>
<path opacity="0.5" d="M28.1967 47.9818C31.3496 46.8534 33.1989 44.1176 34.4316 40.7729C35.1895 38.7162 35.7213 36.4131 36.1822 34.081C36.3657 33.1531 36.5377 32.2233 36.708 31.3018C36.9676 29.8979 37.2235 28.5135 37.5117 27.1833C38.8602 20.9607 42.8841 12.7798 45.3595 8.31128C45.0832 8.42926 44.8118 8.54803 44.5443 8.66765C42.0442 13.2617 38.2827 21.0522 36.9779 27.0726C36.6885 28.4072 36.4294 29.8092 36.1683 31.2214C35.9979 32.1417 35.8272 33.0663 35.6464 33.9795C35.1867 36.3048 34.6609 38.5753 33.9181 40.5917C32.7009 43.8947 30.9197 46.4716 27.9264 47.5085C28.0287 47.6721 28.1187 47.8298 28.1967 47.9818Z" fill="#1C1C2A"/>
<path d="M95.4533 36.1045C95.8494 36.1355 96.2486 36.1558 96.6463 36.167C97.4503 36.1897 98.256 36.1746 99.029 36.1348C99.0505 35.954 99.0751 35.7745 99.1054 35.5962C98.3145 35.6392 97.4866 35.6567 96.6618 35.6336C96.2482 35.6221 95.8375 35.6002 95.4338 35.5671C95.4374 35.7037 95.4442 35.8856 95.4533 36.1045Z" fill="#3A0A44"/>
<path d="M90.2214 28.4973C93.7373 30.2184 97.1804 30.6113 99.456 30.5265C99.3545 30.3354 99.2458 30.1909 99.1483 30.0946L99.1511 30.0564L99.1547 30.0011C96.7847 30.0445 93.2135 29.5569 89.6526 27.5989C89.7636 27.7012 89.8775 27.8027 89.9941 27.903C90.061 28.1004 90.1374 28.2986 90.2214 28.4973Z" fill="#3A0A44"/>
<path opacity="0.5" d="M71.6013 9.10137C72.8237 7.72422 76.6242 5.68963 82.8655 6.92734C82.9651 7.12561 83.0805 7.33741 83.2345 7.5504C76.8551 6.1377 73.1043 8.21855 72.0089 9.45289L71.6013 9.10137Z" fill="#1C1C2A"/>
<path opacity="0.5" d="M93.6809 22.3678C94.3671 22.4939 95.0601 22.3996 95.7519 21.9824C95.7197 22.1058 95.6787 22.2304 95.6281 22.3546C95.7651 22.3546 95.933 22.3622 96.1205 22.3841C95.2982 22.9079 94.444 23.0508 93.5818 22.8924C92.369 22.6695 91.188 21.8575 90.0929 20.8118C88.3853 19.181 86.7999 16.8919 85.5513 15.0883C85.1986 14.5788 84.8726 14.1084 84.5785 13.7024C83.5837 12.3297 81.9124 12.0556 80.1359 12.3232C78.3646 12.59 76.5706 13.3875 75.4625 14.0431L75.1838 13.5853C76.3318 12.9063 78.193 12.0758 80.0539 11.7955C81.9096 11.516 83.8477 11.7756 85.0191 13.3923C85.326 13.8158 85.6611 14.2994 86.0206 14.8185C87.2676 16.6184 88.8065 18.8403 90.4695 20.4281C91.5402 21.4507 92.6265 22.1735 93.6809 22.3678Z" fill="#1C1C2A"/>
<path d="M75.7486 9.95234C77.3814 8.69675 81.4637 7.20799 84.7293 11.2976C87.9952 15.3875 91.1704 18.0245 92.3498 18.8317M79.5587 15.3341C82.0078 15.9618 87.2875 18.0782 88.8116 21.5221C90.7166 25.8269 94.2548 28.5177 96.9763 28.2486M94.7989 30.939C95.2527 31.6567 96.5408 32.8763 98.0649 32.0153M74.3877 4.57171C75.5671 4.39235 78.2523 4.19504 79.5587 4.84079" stroke="#151523" stroke-width="0.8"/>
<path d="M69.2805 9.83649C65.6663 9.74741 57.6787 12.403 54.6424 23.7382M53.8293 14.3814C51.7511 18.213 47.215 27.481 45.6972 33.8971C43.7994 41.9173 42.444 52.0765 28.8903 54.2152M31.6013 40.5806C32.8663 38.6203 35.2335 33.5229 34.5831 28.8177C33.7699 22.9362 34.8541 17.3222 39.7333 14.1139M61.9617 3.15291C57.1724 2.79646 47.0526 4.43616 44.884 13.8465C42.7151 23.257 38.0166 35.2337 35.9384 40.0457" stroke="#151523" stroke-width="0.8"/>
</svg>
