<svg width="1440" height="96" viewBox="0 0 1440 96" fill="none" xmlns="http://www.w3.org/2000/svg">
<rect width="1440" height="96" fill="#20202D"/>
<circle cx="1287" cy="48" r="18" fill="white"/>
<path d="M1280.57 43.5973C1281.68 43.5973 1282.57 42.6993 1282.57 41.5916C1282.57 40.4839 1281.68 39.5859 1280.57 39.5859C1279.46 39.5859 1278.56 40.4839 1278.56 41.5916C1278.56 42.6993 1279.46 43.5973 1280.57 43.5973Z" fill="#2B2B39"/>
<path d="M1284.47 45.117V56.2445H1287.92V50.7417C1287.92 49.2897 1288.19 47.8835 1289.99 47.8835C1291.77 47.8835 1291.79 49.5436 1291.79 50.8334V56.2454H1295.25V50.1431C1295.25 47.1456 1294.6 44.842 1291.1 44.842C1289.42 44.842 1288.29 45.7651 1287.83 46.6387H1287.78V45.117H1284.47ZM1278.84 45.117H1282.3V56.2445H1278.84V45.117Z" fill="#2B2B39"/>
<circle cx="1243" cy="48" r="18" fill="white"/>
<path d="M1241.51 48.0949V57.2431H1244.55V48.2378H1247.06L1247.45 44.9502H1244.55V42.9491C1244.55 41.9485 1244.81 41.3767 1246 41.3767H1247.58V38.5179C1247.32 38.5179 1246.4 38.375 1245.34 38.375C1243.1 38.375 1241.51 39.9473 1241.51 42.6632V44.9502H1238.88V48.0949H1241.51Z" fill="#2B2B39"/>
<circle cx="1199" cy="48" r="18" fill="white"/>
<path d="M1198.95 40.2542C1201.48 40.2542 1201.75 40.2542 1202.76 40.3C1203.68 40.3458 1204.18 40.4833 1204.5 40.6208C1204.91 40.7583 1205.28 41.0333 1205.6 41.3083C1205.92 41.6292 1206.15 41.9958 1206.29 42.4083C1206.43 42.7292 1206.56 43.2333 1206.61 44.15C1206.65 45.1583 1206.65 45.4333 1206.65 47.9542C1206.65 50.475 1206.65 50.75 1206.61 51.7583C1206.56 52.675 1206.43 53.1792 1206.29 53.5C1205.97 54.325 1205.33 54.9667 1204.5 55.2875C1204.18 55.425 1203.68 55.5625 1202.76 55.6083C1201.75 55.6542 1201.48 55.6542 1198.95 55.6542C1196.43 55.6542 1196.16 55.6542 1195.15 55.6083C1194.23 55.5625 1193.73 55.425 1193.41 55.2875C1193 55.15 1192.63 54.875 1192.31 54.6C1191.99 54.2792 1191.76 53.9125 1191.62 53.5C1191.48 53.1792 1191.35 52.675 1191.3 51.7583C1191.25 50.75 1191.25 50.475 1191.25 47.9542C1191.25 45.4333 1191.25 45.1583 1191.3 44.15C1191.35 43.2333 1191.48 42.7292 1191.62 42.4083C1191.76 41.9958 1192.03 41.6292 1192.31 41.3083C1192.63 40.9875 1193 40.7583 1193.41 40.6208C1193.73 40.4833 1194.23 40.3458 1195.15 40.3C1196.16 40.2542 1196.48 40.2542 1198.95 40.2542ZM1198.95 38.5583C1196.39 38.5583 1196.07 38.5583 1195.06 38.6042C1194.05 38.65 1193.36 38.7875 1192.77 39.0625C1192.17 39.2917 1191.62 39.6583 1191.16 40.1167C1190.7 40.575 1190.29 41.1708 1190.06 41.7667C1189.83 42.3625 1189.65 43.05 1189.6 44.0583C1189.56 45.0667 1189.56 45.3875 1189.56 47.9542C1189.56 50.5208 1189.56 50.8417 1189.6 51.85C1189.65 52.8583 1189.79 53.5458 1190.06 54.1417C1190.29 54.7375 1190.66 55.3333 1191.16 55.7917C1191.62 56.25 1192.22 56.6625 1192.81 56.8917C1193.41 57.1208 1194.1 57.3042 1195.1 57.35C1196.11 57.3958 1196.43 57.3958 1199 57.3958C1201.57 57.3958 1201.89 57.3958 1202.9 57.35C1203.9 57.3042 1204.59 57.1667 1205.19 56.8917C1206.47 56.3875 1207.43 55.425 1207.94 54.1417C1208.17 53.5458 1208.35 52.8583 1208.4 51.85C1208.44 50.8417 1208.44 50.5208 1208.44 47.9542C1208.44 45.3875 1208.44 45.0667 1208.4 44.0583C1208.35 43.05 1208.21 42.3625 1207.94 41.7667C1207.71 41.125 1207.34 40.575 1206.84 40.1167C1206.38 39.6583 1205.78 39.2458 1205.19 39.0167C1204.59 38.7875 1203.9 38.6042 1202.9 38.5583C1201.84 38.5583 1201.52 38.5583 1198.95 38.5583Z" fill="#2B2B39"/>
<path d="M1198.95 43.1416C1196.29 43.1416 1194.14 45.2958 1194.14 47.9541C1194.14 50.6124 1196.29 52.7666 1198.95 52.7666C1201.61 52.7666 1203.77 50.6124 1203.77 47.9541C1203.81 45.2958 1201.66 43.1416 1198.95 43.1416ZM1198.95 51.1166C1197.21 51.1166 1195.84 49.6958 1195.84 47.9999C1195.84 46.2583 1197.26 44.8833 1198.95 44.8833C1200.69 44.8833 1202.07 46.3041 1202.07 47.9999C1202.12 49.6958 1200.69 51.1166 1198.95 51.1166Z" fill="#2B2B39"/>
<path d="M1204 44.1042C1204.63 44.1042 1205.14 43.5912 1205.14 42.9583C1205.14 42.3255 1204.63 41.8125 1204 41.8125C1203.36 41.8125 1202.85 42.3255 1202.85 42.9583C1202.85 43.5912 1203.36 44.1042 1204 44.1042Z" fill="#2B2B39"/>
<circle cx="1155" cy="48" r="18" fill="white"/>
<path d="M1162.76 42.1305C1163.62 41.6148 1164.28 40.7983 1164.59 39.8255C1163.79 40.3029 1162.9 40.6496 1161.95 40.8365C1161.19 40.0268 1160.11 39.5208 1158.91 39.5208C1156.61 39.5208 1154.74 41.3862 1154.74 43.6871C1154.74 44.0136 1154.78 44.3317 1154.85 44.6366C1151.39 44.4628 1148.32 42.8041 1146.26 40.2834C1145.9 40.8988 1145.7 41.6145 1145.7 42.378C1145.7 43.8235 1146.43 45.0988 1147.55 45.8459C1146.87 45.8243 1146.23 45.6369 1145.66 45.3248C1145.66 45.3422 1145.66 45.3596 1145.66 45.3772C1145.66 47.3959 1147.1 49.0799 1149.01 49.4626C1148.66 49.5578 1148.29 49.6087 1147.91 49.6087C1147.64 49.6087 1147.38 49.5826 1147.12 49.5339C1147.65 51.1893 1149.19 52.3938 1151.02 52.4275C1149.59 53.5449 1147.79 54.211 1145.84 54.211C1145.51 54.211 1145.17 54.1913 1144.85 54.1528C1146.69 55.335 1148.88 56.0247 1151.23 56.0247C1158.9 56.0247 1163.09 49.676 1163.09 44.1702C1163.09 43.9896 1163.08 43.8099 1163.08 43.6312C1163.89 43.0438 1164.6 42.31 1165.16 41.4745C1164.41 41.8058 1163.61 42.0298 1162.76 42.1305Z" fill="#2B2B39"/>
<path d="M705.624 39.224V50.744L698.016 39.224H694.656V56H698.016V44.504L705.624 56H708.984V39.224H705.624ZM718.016 45.248C719.744 45.248 721.136 46.352 721.184 48.104H714.872C715.136 46.28 716.408 45.248 718.016 45.248ZM724.328 51.824H720.704C720.272 52.712 719.48 53.432 718.04 53.432C716.36 53.432 715.016 52.328 714.848 50.36H724.568C724.64 49.928 724.664 49.496 724.664 49.064C724.664 45.104 721.952 42.488 718.112 42.488C714.176 42.488 711.44 45.152 711.44 49.352C711.44 53.528 714.248 56.216 718.112 56.216C721.4 56.216 723.608 54.272 724.328 51.824ZM727.645 51.872C727.645 54.92 729.349 56 731.893 56H734.005V53.168H732.445C731.389 53.168 731.029 52.784 731.029 51.896V45.464H734.005V42.704H731.029V39.416H727.645V42.704H726.061V45.464H727.645V51.872ZM739.782 44.648V38.24H736.422V56H739.782V54.104C740.598 55.256 742.086 56.216 744.174 56.216C747.582 56.216 750.246 53.456 750.246 49.304C750.246 45.152 747.582 42.488 744.174 42.488C742.158 42.488 740.598 43.424 739.782 44.648ZM746.814 49.304C746.814 51.824 745.11 53.264 743.286 53.264C741.486 53.264 739.782 51.872 739.782 49.352C739.782 46.832 741.486 45.44 743.286 45.44C745.11 45.44 746.814 46.784 746.814 49.304ZM765.527 49.352C765.527 45.152 762.527 42.488 758.687 42.488C754.847 42.488 751.847 45.152 751.847 49.352C751.847 53.528 754.751 56.216 758.591 56.216C762.455 56.216 765.527 53.528 765.527 49.352ZM755.255 49.352C755.255 46.688 756.863 45.416 758.639 45.416C760.415 45.416 762.071 46.688 762.071 49.352C762.071 51.992 760.367 53.288 758.591 53.288C756.791 53.288 755.255 51.992 755.255 49.352ZM780.832 49.352C780.832 45.152 777.832 42.488 773.992 42.488C770.152 42.488 767.152 45.152 767.152 49.352C767.152 53.528 770.056 56.216 773.896 56.216C777.76 56.216 780.832 53.528 780.832 49.352ZM770.56 49.352C770.56 46.688 772.168 45.416 773.944 45.416C775.72 45.416 777.376 46.688 777.376 49.352C777.376 51.992 775.672 53.288 773.896 53.288C772.096 53.288 770.56 51.992 770.56 49.352ZM783.297 56H786.657V50.336L791.169 56H795.537L789.633 49.376L795.489 42.704H791.121L786.657 48.344V38.24H783.297V56Z" fill="white"/>
<path d="M687.001 48.0001C687.001 57.3889 679.39 65.0001 670.001 65.0001C666.061 65.0001 662.434 63.6595 659.551 61.4095L677.783 43.177C678.653 44.5776 679.155 46.2294 679.155 48.0001C679.155 52.1928 676.336 55.7271 672.49 56.8114C671.917 56.0654 671.015 55.5847 670.001 55.5847C668.268 55.5847 666.863 56.9898 666.863 58.7231C666.863 60.4565 668.268 61.8616 670.001 61.8616C671.299 61.8616 672.413 61.0741 672.89 59.9509C678.285 58.6513 682.294 53.7938 682.294 48.0001C682.294 45.3619 681.461 42.9162 680.046 40.9138L683.411 37.5496C685.661 40.4325 687.001 44.0597 687.001 48.0001Z" fill="#FFAF2E"/>
<path d="M659.955 55.0862L656.591 58.4505C654.341 55.5676 653 51.9403 653 48C653 38.6112 660.611 31 670 31C673.94 31 677.568 32.3406 680.45 34.5905L662.218 52.823C661.348 51.4225 660.846 49.7708 660.846 48C660.846 43.8073 663.665 40.2729 667.511 39.1887C668.085 39.9346 668.986 40.4154 670 40.4154C671.733 40.4154 673.138 39.0102 673.138 37.2769C673.138 35.5436 671.733 34.1385 670 34.1385C668.702 34.1385 667.589 34.926 667.111 36.0491C661.716 37.3487 657.708 42.2063 657.708 48C657.708 50.6379 658.54 53.0838 659.955 55.0862Z" fill="#F04148"/>
<circle cx="669.999" cy="37.2769" r="1.30769" fill="#F04148"/>
<circle cx="669.999" cy="58.7232" r="1.30769" fill="#FFAF2E"/>
<path d="M136.233 53H139.912C142.318 53 143.312 51.8267 143.312 50.2955C143.312 48.6847 142.199 47.8097 141.264 47.75V47.6506C142.139 47.4119 142.915 46.8352 142.915 45.5227C142.915 44.0312 141.92 42.8182 139.793 42.8182H136.233V53ZM137.466 51.9062V48.3665H139.972C141.304 48.3665 142.139 49.2614 142.139 50.2955C142.139 51.1903 141.523 51.9062 139.912 51.9062H137.466ZM137.466 47.2926V43.9119H139.793C141.145 43.9119 141.741 44.6278 141.741 45.5227C141.741 46.5966 140.866 47.2926 139.753 47.2926H137.466ZM148.381 53.1591C149.932 53.1591 151.066 52.3835 151.424 51.2301L150.29 50.9119C149.992 51.7074 149.301 52.1051 148.381 52.1051C147.004 52.1051 146.054 51.2152 146 49.5795H151.543V49.0824C151.543 46.2386 149.853 45.2642 148.262 45.2642C146.194 45.2642 144.821 46.8949 144.821 49.2415C144.821 51.5881 146.174 53.1591 148.381 53.1591ZM146 48.5653C146.079 47.3771 146.919 46.3182 148.262 46.3182C149.534 46.3182 150.35 47.2727 150.35 48.5653H146ZM158.737 47.0739C158.369 45.9901 157.544 45.2642 156.032 45.2642C154.422 45.2642 153.228 46.179 153.228 47.4716C153.228 48.5256 153.855 49.2315 155.257 49.5597L156.529 49.858C157.3 50.0369 157.663 50.4048 157.663 50.9318C157.663 51.5881 156.967 52.125 155.873 52.125C154.914 52.125 154.312 51.7124 154.103 50.892L152.99 51.1705C153.263 52.468 154.332 53.1591 155.893 53.1591C157.668 53.1591 158.876 52.1896 158.876 50.8722C158.876 49.8082 158.21 49.1371 156.848 48.804L155.714 48.5256C154.809 48.3018 154.402 47.9986 154.402 47.4119C154.402 46.7557 155.098 46.2784 156.032 46.2784C157.056 46.2784 157.479 46.8452 157.683 47.3722L158.737 47.0739ZM161.816 48.4062C161.816 47.0739 162.641 46.3182 163.764 46.3182C164.853 46.3182 165.514 47.0291 165.514 48.2273V53H166.688V48.1477C166.688 46.1989 165.649 45.2642 164.102 45.2642C162.949 45.2642 162.233 45.7812 161.875 46.5568H161.776V45.3636H160.642V53H161.816V48.4062ZM168.832 53H170.005V45.3636H168.832V53ZM169.428 44.0909C169.886 44.0909 170.263 43.733 170.263 43.2955C170.263 42.858 169.886 42.5 169.428 42.5C168.971 42.5 168.593 42.858 168.593 43.2955C168.593 43.733 168.971 44.0909 169.428 44.0909ZM172.154 53H173.327V50.1413L174.148 49.3807L177.006 53H178.498L175.032 48.625L178.259 45.3636H176.807L173.466 48.7642H173.327V42.8182H172.154V53ZM192.059 46C191.681 43.9119 190.011 42.679 187.962 42.679C185.357 42.679 183.468 44.6875 183.468 47.9091C183.468 51.1307 185.357 53.1392 187.962 53.1392C190.011 53.1392 191.681 51.9062 192.059 49.8182H190.826C190.528 51.2301 189.315 51.9858 187.962 51.9858C186.113 51.9858 184.661 50.554 184.661 47.9091C184.661 45.2642 186.113 43.8324 187.962 43.8324C189.315 43.8324 190.528 44.5881 190.826 46H192.059ZM193.892 53H195.066V48.1676C195.066 47.1335 195.881 46.3778 196.994 46.3778C197.308 46.3778 197.631 46.4375 197.71 46.4574V45.2642C197.576 45.2543 197.268 45.2443 197.094 45.2443C196.179 45.2443 195.384 45.7614 195.105 46.517H195.026V45.3636H193.892V53ZM202.07 53.1591C203.622 53.1591 204.755 52.3835 205.113 51.2301L203.98 50.9119C203.681 51.7074 202.99 52.1051 202.07 52.1051C200.693 52.1051 199.744 51.2152 199.689 49.5795H205.232V49.0824C205.232 46.2386 203.542 45.2642 201.951 45.2642C199.883 45.2642 198.511 46.8949 198.511 49.2415C198.511 51.5881 199.863 53.1591 202.07 53.1591ZM199.689 48.5653C199.769 47.3771 200.609 46.3182 201.951 46.3182C203.224 46.3182 204.039 47.2727 204.039 48.5653H199.689ZM209.264 53.179C210.597 53.179 211.293 52.4631 211.531 51.9659H211.591V53H212.764V47.9688C212.764 45.5426 210.915 45.2642 209.941 45.2642C208.787 45.2642 207.475 45.6619 206.878 47.054L207.992 47.4517C208.25 46.8949 208.862 46.2983 209.98 46.2983C211.059 46.2983 211.591 46.87 211.591 47.8494V47.8892C211.591 48.456 211.014 48.4062 209.622 48.5852C208.205 48.7692 206.659 49.0824 206.659 50.8324C206.659 52.3239 207.813 53.179 209.264 53.179ZM209.443 52.125C208.509 52.125 207.833 51.7074 207.833 50.892C207.833 49.9972 208.648 49.7188 209.563 49.5994C210.06 49.5398 211.392 49.4006 211.591 49.1619V50.2358C211.591 51.1903 210.835 52.125 209.443 52.125ZM218.227 45.3636H216.596V43.5341H215.423V45.3636H214.27V46.358H215.423V51.1307C215.423 52.4631 216.497 53.0994 217.491 53.0994C217.929 53.0994 218.207 53.0199 218.366 52.9602L218.127 51.9062C218.028 51.9261 217.869 51.9659 217.61 51.9659C217.093 51.9659 216.596 51.8068 216.596 50.8125V46.358H218.227V45.3636ZM219.992 53H221.165V45.3636H219.992V53ZM220.588 44.0909C221.046 44.0909 221.424 43.733 221.424 43.2955C221.424 42.858 221.046 42.5 220.588 42.5C220.131 42.5 219.753 42.858 219.753 43.2955C219.753 43.733 220.131 44.0909 220.588 44.0909ZM229.558 45.3636H228.286L226.178 51.4489H226.098L223.99 45.3636H222.718L225.541 53H226.735L229.558 45.3636ZM234.035 53.1591C235.586 53.1591 236.72 52.3835 237.078 51.2301L235.944 50.9119C235.646 51.7074 234.955 52.1051 234.035 52.1051C232.658 52.1051 231.709 51.2152 231.654 49.5795H237.197V49.0824C237.197 46.2386 235.507 45.2642 233.916 45.2642C231.848 45.2642 230.476 46.8949 230.476 49.2415C230.476 51.5881 231.828 53.1591 234.035 53.1591ZM231.654 48.5653C231.733 47.3771 232.574 46.3182 233.916 46.3182C235.189 46.3182 236.004 47.2727 236.004 48.5653H231.654ZM243.496 53L244.52 50.1165H248.637L249.661 53H250.954L247.215 42.8182H245.942L242.204 53H243.496ZM244.908 49.0227L246.539 44.429H246.618L248.249 49.0227H244.908ZM255.463 56.0227C257.292 56.0227 258.764 55.1875 258.764 53.2188V45.3636H257.631V46.5767H257.511C257.253 46.179 256.775 45.2642 255.284 45.2642C253.355 45.2642 252.023 46.7955 252.023 49.142C252.023 51.5284 253.415 52.8807 255.264 52.8807C256.756 52.8807 257.233 52.0057 257.491 51.5881H257.591V53.1392C257.591 54.4119 256.696 54.9886 255.463 54.9886C254.076 54.9886 253.589 54.2578 253.275 53.8352L252.341 54.4915C252.818 55.2919 253.758 56.0227 255.463 56.0227ZM255.423 51.8267C253.952 51.8267 253.196 50.7131 253.196 49.1222C253.196 47.571 253.932 46.3182 255.423 46.3182C256.855 46.3182 257.611 47.4716 257.611 49.1222C257.611 50.8125 256.835 51.8267 255.423 51.8267ZM264.113 53.1591C265.665 53.1591 266.798 52.3835 267.156 51.2301L266.023 50.9119C265.724 51.7074 265.033 52.1051 264.113 52.1051C262.736 52.1051 261.787 51.2152 261.732 49.5795H267.275V49.0824C267.275 46.2386 265.585 45.2642 263.994 45.2642C261.926 45.2642 260.554 46.8949 260.554 49.2415C260.554 51.5881 261.906 53.1591 264.113 53.1591ZM261.732 48.5653C261.812 47.3771 262.652 46.3182 263.994 46.3182C265.267 46.3182 266.082 47.2727 266.082 48.5653H261.732ZM270.233 48.4062C270.233 47.0739 271.059 46.3182 272.182 46.3182C273.271 46.3182 273.932 47.0291 273.932 48.2273V53H275.106V48.1477C275.106 46.1989 274.067 45.2642 272.52 45.2642C271.367 45.2642 270.651 45.7812 270.293 46.5568H270.194V45.3636H269.06V53H270.233V48.4062ZM280.352 53.1591C282.042 53.1591 283.156 52.125 283.355 50.7727H282.181C281.963 51.608 281.267 52.1051 280.352 52.1051C278.96 52.1051 278.065 50.9517 278.065 49.1818C278.065 47.4517 278.98 46.3182 280.352 46.3182C281.386 46.3182 282.002 46.9545 282.181 47.6506H283.355C283.156 46.2188 281.943 45.2642 280.332 45.2642C278.264 45.2642 276.892 46.8949 276.892 49.2216C276.892 51.5085 278.204 53.1591 280.352 53.1591ZM285.826 55.8636C286.885 55.8636 287.63 55.3018 288.073 54.1136L291.324 45.3835L290.042 45.3636L287.934 51.4489H287.854L285.746 45.3636H284.473L287.297 53.0398L287.078 53.6364C286.651 54.7997 286.124 54.9091 285.269 54.6903L284.971 55.7244C285.09 55.7841 285.428 55.8636 285.826 55.8636ZM293.253 53.0795C293.745 53.0795 294.148 52.6768 294.148 52.1847C294.148 51.6925 293.745 51.2898 293.253 51.2898C292.761 51.2898 292.358 51.6925 292.358 52.1847C292.358 52.6768 292.761 53.0795 293.253 53.0795Z" fill="#F6F6F6"/>
</svg>
